<?xml version="1.0" encoding="utf-8"?>
<!-- Generator: Adobe Illustrator 19.2.0, SVG Export Plug-In . SVG Version: 6.00 Build 0)  -->
<svg version="1.1" id="Layer_1" xmlns="http://www.w3.org/2000/svg" xmlns:xlink="http://www.w3.org/1999/xlink" x="0px" y="0px"
	 viewBox="0 0 250.7 281.3" style="enable-background:new 0 0 250.7 281.3;" xml:space="preserve">
<metadata><?xpacket begin="﻿" id="W5M0MpCehiHzreSzNTczkc9d"?>
<x:xmpmeta xmlns:x="adobe:ns:meta/" x:xmptk="Adobe XMP Core 5.6-c111 79.158366, 2015/09/25-01:12:00        ">
   <rdf:RDF xmlns:rdf="http://www.w3.org/1999/02/22-rdf-syntax-ns#">
      <rdf:Description rdf:about=""/>
   </rdf:RDF>
</x:xmpmeta>
                                                                                                    
                                                                                                    
                                                                                                    
                                                                                                    
                                                                                                    
                                                                                                    
                                                                                                    
                                                                                                    
                                                                                                    
                                                                                                    
                                                                                                    
                                                                                                    
                                                                                                    
                                                                                                    
                                                                                                    
                                                                                                    
                                                                                                    
                                                                                                    
                                                                                                    
                                                                                                    
                           
<?xpacket end="w"?></metadata>
<style type="text/css">
	.st0{display:none;}
	.st1{fill:#D80019;}
</style>
<g id="_x2014_ÂÚÍ_x2021_">
</g>
<g id="_x2014_ÎÓÈ_1" class="st0">
</g>
<g id="_x2013__x2021_·Ó_x2DC_ËÈ_ÒÚÓÎ" class="st0">
</g>
<g id="Õ_x2021_Ô_xF8FF__x2021__x201A_Î_x2C7__x2DB__x2D8_ËÂ" class="st0">
</g>
<g id="Page_1">
</g>
<path class="st1" d="M239.6,119.6c-0.2-0.6-0.6-2.7-1.2-5.1c-1.6-7-5.3-22.3-7.1-27.1c-1.2-3.2-1.3-5.5-1.4-8
	c-0.2-4.5-1.3-15.7-3.8-21.5c-1.9-4.3-4.6-9.4-6.2-12.6c-0.7-1.4-1.3-2.4-1.4-2.8c-0.7-1.7-2.7-5.6-4.5-6.7
	c-3.3-2-10.2-6.4-15.3-8.2c-4.9-1.7-16.5-5.6-22.2-7.2c-1.7-0.5-13.7-4-14.4-4.7c-0.3-0.4-0.9-0.9-1.5-1.4c-0.8-0.6-2.1-1.5-2.6-1.4
	c-10,2.4-25.4,2.7-36.6,2.6c-5.1-0.1-10.6-0.5-15.7-1c-8.6-0.9-15.7-2.2-16.5-2.5l-0.2,0c-1.5,0.2-2.7,1.3-3.5,2.1
	c-0.3,0-0.8,0-1.1,0.1c-0.4,0.1-0.7,0.4-0.9,0.7c-0.8,0.5-5.2,2.5-9.9,4.5c-3.9,1.7-8.1,3.4-10.3,4.1c-5,1.6-20.8,7-26.8,10
	c-5.2,2.6-8.1,5.7-10.7,10c-2.1,3.5-3.7,10.8-4.5,14.5c-0.6,2.9-2.3,10.4-2.7,13.3c-0.3,1.8-1.1,8.5-1,11.2
	c0.1,2.9-0.4,10.1-0.6,12.3c-0.2,2.1-2,10.1-2.5,12.3c-0.4,1.8-1.5,5-1.8,6.7c-0.3,1.3-0.5,7.4-0.4,8c0,0.4,0.9,1.2,2.3,2
	c5.2,2.7,10.7,3.1,15.4,3.3c3.1,0.1,10.5,0.3,13.9-0.4c4.2-0.9,6.3-2.8,7.2-3.2c0.5-0.2,1.4-0.6,2.2-1.4c2.4,5.6,2.1,14.8,1.6,21.2
	c-0.4,6.4,0.5,22.5,0.3,29.8c-0.1,6-0.5,15.9-0.8,21.2c-0.3,5.7-1.4,21.4-1.5,25.9c-0.1,4.3,0.1,10.2-0.2,14.2
	c-0.2,2.5-0.1,6-0.1,8.6c0,1.2,0,2.2,0,2.8c0,0-0.6,11.1-0.6,12.6h0c0,1.7-0.1,3.1,3.6,4.7c4.9,2.1,14.7,4.9,21.1,5.5
	c9.2,1,30.6,2.4,41.4,2.4c6.3,0,12.1-0.2,17.2-0.3c5.1-0.2,9.3-0.3,12.2-0.2c5.2,0.2,41.1-3.7,44.5-4.9c2.9-1,3.4-4.6,3.3-6.9
	c-0.1-3.7,0-9.5-0.2-13.4c-0.4-7.1-1.3-13.6-0.8-22.3c0.4-8.6-1.3-28.7-1.7-39.2c-0.2-6.2-0.2-18.3-0.2-26.2c0-3.9,0-6.7,0-7.2
	c-0.1-2.1-0.8-5.3-0.2-7.1c0.5-1.5,1.4-8.8,1.9-12.7c0.4-3.4,1-6.5,1.5-9.8c1.5,1.5,2,2.5,3.5,5c1.1,1.8,1.6,3.2,3.8,3.2
	c1.9,0,7.3-0.6,9.5-0.9c1.8-0.3,10.8-2.3,17.5-3.9c3.8-0.9,6.9-1.6,7.6-1.7C239.3,122.4,240.1,121.3,239.6,119.6z"/>
</svg>
