<?xml version="1.0" encoding="utf-8"?>
<!-- Generator: Adobe Illustrator 19.2.0, SVG Export Plug-In . SVG Version: 6.00 Build 0)  -->
<svg version="1.1" xmlns="http://www.w3.org/2000/svg" xmlns:xlink="http://www.w3.org/1999/xlink" x="0px" y="0px"
	 viewBox="0 0 250.7 281.3" style="enable-background:new 0 0 250.7 281.3;" xml:space="preserve">
<metadata><?xpacket begin="﻿" id="W5M0MpCehiHzreSzNTczkc9d"?>
<x:xmpmeta xmlns:x="adobe:ns:meta/" x:xmptk="Adobe XMP Core 5.6-c111 79.158366, 2015/09/25-01:12:00        ">
   <rdf:RDF xmlns:rdf="http://www.w3.org/1999/02/22-rdf-syntax-ns#">
      <rdf:Description rdf:about=""/>
   </rdf:RDF>
</x:xmpmeta>
                                                                                                    
                                                                                                    
                                                                                                    
                                                                                                    
                                                                                                    
                                                                                                    
                                                                                                    
                                                                                                    
                                                                                                    
                                                                                                    
                                                                                                    
                                                                                                    
                                                                                                    
                                                                                                    
                                                                                                    
                                                                                                    
                                                                                                    
                                                                                                    
                                                                                                    
                                                                                                    
                           
<?xpacket end="w"?></metadata>
<style type="text/css">
	.st0{display:none;}
	.st1{fill:#FFFFFF;}
	.st2{fill-rule:evenodd;clip-rule:evenodd;fill:#FFFFFF;}
</style>
<g id="_x2014_ÂÚÍ_x2021_">
</g>
<g id="_x2014_ÎÓÈ_1" class="st0">
</g>
<g id="_x2013__x2021_·Ó_x2DC_ËÈ_ÒÚÓÎ" class="st0">
</g>
<g id="Õ_x2021_Ô_xF8FF__x2021__x201A_Î_x2C7__x2DB__x2D8_ËÂ" class="st0">
</g>
<g id="Page_1">
</g>
<g id="_x2014_ÎÓÈ_1_1_">
	<g>
		<path class="st1" d="M52.1,244.6c0-0.5,0-1.6,0-2.8c0-2.6-0.1-6.2,0.1-8.6c0.3-3.9,0.1-9.9,0.2-14.2c0.1-4.4,1.2-20.2,1.5-25.9
			c0.3-5.3,0.6-15.2,0.8-21.2c0.2-7.3-0.7-23.4-0.3-29.8c0.5-6.4,0.8-15.6-1.6-21.2c-0.8,0.8-1.7,1.1-2.2,1.4
			c-0.9,0.4-3,2.4-7.2,3.2c-3.4,0.7-10.8,0.6-13.9,0.4c-4.7-0.2-10.2-0.6-15.4-3.3c-1.5-0.8-2.3-1.5-2.3-2c0-0.6,0.2-6.7,0.4-8
			c0.3-1.7,1.4-4.9,1.8-6.7c0.5-2.2,2.3-10.1,2.5-12.3c0.2-2.2,0.7-9.4,0.6-12.3c-0.1-2.7,0.7-9.4,1-11.2c0.4-2.9,2.1-10.5,2.7-13.3
			c0.8-3.7,2.4-11,4.5-14.5c2.6-4.4,5.5-7.4,10.7-10c6-3,21.8-8.4,26.8-10c2.3-0.7,6.4-2.4,10.3-4.1c4.6-2,9-4,9.9-4.5
			c0.2-0.4,0.5-0.6,0.9-0.7c0.4-0.1,0.8-0.2,1.1-0.1c0.7-0.7,1.9-1.9,3.5-2.1l0.2,0c0.8,0.3,7.9,1.5,16.5,2.5c5,0.6,10.6,1,15.7,1
			c11.3,0.1,26.6-0.2,36.6-2.6c0.5-0.1,1.8,0.8,2.6,1.4c0.6,0.5,1.2,1,1.5,1.4c0.7,0.7,12.7,4.3,14.4,4.7c5.8,1.6,17.3,5.5,22.2,7.2
			c5.1,1.8,12,6.2,15.3,8.2c1.8,1.1,3.8,5.1,4.5,6.7c0.2,0.4,0.7,1.4,1.4,2.8c1.7,3.2,4.4,8.3,6.2,12.6c2.5,5.8,3.6,17,3.8,21.5
			c0.1,2.5,0.2,4.8,1.4,8c1.8,4.8,5.5,20.1,7.1,27.1c0.6,2.5,1,4.5,1.2,5.1c0.5,1.7-0.2,2.8-2.2,3.2c-0.7,0.1-3.8,0.8-7.6,1.7
			c-6.7,1.6-15.7,3.6-17.5,3.9c-2.2,0.3-7.6,0.9-9.5,0.9c-2.3,0-2.8-1.4-3.8-3.2c-1.5-2.5-2-3.5-3.5-5c-0.5,3.3-1.1,6.3-1.5,9.8
			c-0.5,3.9-1.4,11.2-1.9,12.7c-0.6,1.8,0.1,5,0.2,7.1c0,0.5,0,3.3,0,7.2c0,7.8,0,20,0.2,26.2c0.3,10.5,2.1,30.6,1.7,39.2
			c-0.4,8.7,0.5,15.2,0.8,22.3c0.2,3.9,0.1,9.7,0.2,13.4c0.1,2.3-0.4,5.9-3.3,6.9c-3.3,1.1-39.3,5.1-44.5,4.9c-3-0.1-7.2,0-12.2,0.2
			c-5,0.2-10.9,0.3-17.2,0.3c-10.8,0-32.2-1.4-41.4-2.4c-6.4-0.7-16.3-3.4-21.1-5.5c-3.7-1.6-3.6-3-3.6-4.7h0
			C51.5,255.7,52.1,244.6,52.1,244.6L52.1,244.6z"/>
		<path class="st2" d="M52.6,244.6c0.1-1.7-0.2-7.8,0.1-11.4c0.3-3.6,0.1-9.4,0.2-14.2c0.2-4.9,1.3-21.2,1.5-25.8
			c0.2-4.6,0.6-14.1,0.8-21.2c0.2-7.1-0.8-23.3-0.3-29.7c0.5-6.4,0.3-10.9,0-13.9c-0.3-3-1.2-6.7-2.1-8.2c-0.8,1-2.1,1.6-2.6,1.8
			c-0.5,0.2-3.1,2.4-7.1,3.2c-4,0.8-11.9,0.5-13.6,0.4c-1.7-0.1-7.1-0.2-11.1-1.5s-6.3-2.8-6.3-3.3c0-0.5,0.2-6.6,0.4-7.9
			c0.3-1.3,1.4-4.6,1.8-6.7c0.5-2.1,2.4-10.3,2.6-12.3c0.2-2.1,0.7-9.2,0.6-12.4c-0.1-3.2,0.8-9.6,1-11.2c0.2-1.6,1.9-9.4,2.7-13
			s2.4-11.1,4.5-14.6c2.1-3.6,4.7-6.9,10.5-9.9c5.8-2.9,21.7-8.4,26.8-10c5.1-1.6,19.4-8,20.5-8.7c0.3-0.7,1.3-0.7,1.8-0.6
			c0.6-0.6,1.8-1.9,3.3-2.1c1.3,0.4,18.4,3.4,32.3,3.6c13.9,0.1,28.1-0.6,36.8-2.6c0.8,0.3,3.1,1.8,3.6,2.6
			c0.7,0.6,9.1,3.3,14.6,4.9c5.6,1.6,17.2,5.5,22.2,7.2s13.3,7,15.2,8.1c1.9,1.1,3.8,5.3,4.3,6.5c0.5,1.2,5,9.1,7.7,15.4
			c2.7,6.2,3.6,17.7,3.8,20.5c0.2,2.8,0.2,5.4,1.5,8.9c1.4,3.6,4.1,14.7,5.1,18.8c1.1,4.1,2.7,12.1,3.1,13.3
			c0.4,1.2,0.1,2.2-1.8,2.6c-1.9,0.4-22.2,5.2-25.1,5.6c-2.9,0.4-8.1,0.9-9.4,0.9c-1.3,0-1.8-0.5-2.2-1c-0.4-0.5-3-5-3.7-5.9
			c-0.8-0.9-1.2-1.5-1.8-1.7c-0.1,1-1.1,7.2-1.3,8.2c-0.2,1.1-1.5,13-2.1,15c-0.6,1.9,0.2,5.8,0.2,7.3c0.1,1.5-0.1,24.1,0.2,33.4
			c0.3,9.3,2.1,30.3,1.7,39.2c-0.5,8.9,0.6,17.8,0.8,22.3c0.2,4.5,0.2,11.4,0.2,13.4c0.1,2-0.2,5.5-2.9,6.4
			c-2.7,0.9-38.4,5.1-44.3,4.9c-5.9-0.2-16.7,0.5-29.4,0.5c-12.7,0-33.4-1.5-41.4-2.4c-8-0.9-17.5-4-21-5.5
			c-3.5-1.5-3.3-2.8-3.3-4.3C52,255.7,52.6,244.6,52.6,244.6L52.6,244.6z"/>
		<path class="st2" d="M53.9,122.8L53.9,122.8L53.9,122.8l0-0.2l0,0l0-0.1l0,0l0,0l0,0l0-0.1l0,0l0,0l0-0.1l0-0.1l0,0l0,0l0-0.1l0,0
			l0,0l0-0.1l0,0l0-0.1l0,0l0-0.1l0,0l0-0.1l0,0l0,0l0,0l0,0l0,0l0,0l0,0l0,0l0-0.1l0,0l0-0.1l0,0l0-0.1l0,0l0,0l0-0.1l0,0
			c0-0.1,0-0.1-0.1-0.2l0,0v0l0-0.1l0,0l0-0.1l0,0l0-0.1l0,0l0-0.1l0,0l0,0l0,0l0,0l0,0l0-0.1l0,0l0-0.1l0,0l0,0l0-0.1l0,0l0-0.1
			c-0.8,1-2.1,1.6-2.6,1.8l0,0l0,0l0,0l0,0l0,0l0,0l0,0l0,0l0,0l0,0l0,0l0,0l0,0l0,0l0,0l0,0l0,0l0,0l0,0l0,0l0,0l0,0l0,0h0l0,0l0,0
			l0,0l0,0l0,0l0,0l0,0l0,0l0,0l0,0l0,0l0,0l0,0l0,0l0,0l0,0l0,0l0,0l0,0l0,0l0,0l0,0l0,0l0,0l0,0l0,0l0,0l0,0l0,0l0,0l0,0l0,0l0,0
			l0,0l0,0l0,0l0,0l0,0l0,0l0,0l0,0l0,0l0,0l0,0l0,0l0,0l0,0l0,0l0,0l0,0l0,0l0,0l0,0l0,0l0,0l0,0l0,0l0,0c-1.2,0.8-3.2,1.8-5.9,2.4
			c-4,0.8-11.9,0.5-13.6,0.4c-1.7-0.1-7.1-0.2-11.1-1.5c-3.9-1.3-6.3-2.8-6.3-3.3c0-0.5,0.2-6.6,0.4-7.9c0.3-1.3,1.4-4.6,1.8-6.7
			c0.5-2.1,2.4-10.3,2.6-12.3c0.2-2.1,0.7-9.2,0.6-12.4c-0.1-3.2,0.8-9.6,1-11.2c0.1-0.5,0.3-1.6,0.6-3c4.9,0.1,10.6,1,17,2.9
			c0.5-3.3,4.4-9.9,4.5-6.5c0.1,3.4-0.2,2.3-0.7,9.4c-0.4,7.1,1.4,11.9,2.7,10.3c1.4-1.6,7.6-6.4,5.4-1.8c-2.2,4.6-4,5.6-2,8.4
			c2.1,2.7,1.2,4,3.6,4.2c2.3,0.1,9.8,0,6.2,2c-3.6,2-4.9,4.2-3,5.7c1.9,1.5,2.5,1.4,0.4,3.5c-0.6,0.6-1,1.7-1,2.9
			c1.3-2.6,2.5-3.2,2.6,0.8c0.5,10.6,1.4,11.4,3.9,12.3c2.6,0.9,4.2,2.8,0.1,7.1c-4.2,4.2-2.6,9.3-0.7,13c1.9,3.7,1.1,4.8,2.1,10.7
			c1.1,5.9,5.7,22.3-0.2,16.2c-5.9-6.1-2.4,11.5-1.4,16.9c1.1,5.4-1.7,11.1,2.1,22.7c3.8,11.6,8.4,17.7-0.2,13.2
			c-8.6-4.6-0.9,5.4-0.8,10.4c0.2,5,3.5,23.1-1.4,15.9c-5-7.2-4.7,2.3-4.4,5.7c0.3,3.4,0.6,5.7,0.5,8.3c-2.8-1.4-2.6-2.6-2.6-4
			c0-1.5,0.6-12.6,0.6-12.6c0.1-1.7-0.2-7.8,0.1-11.4c0.3-3.6,0.1-9.4,0.2-14.2c0.2-4.9,1.3-21.2,1.5-25.8
			c0.2-4.6,0.6-14.1,0.8-21.2c0.2-7.1-0.8-23.3-0.3-29.7c0.5-6.4,0.3-10.9,0-13.9C54.7,126.5,54.3,124.4,53.9,122.8L53.9,122.8z
			 M222.7,124.1c-5,1.1-9.7,2.2-10.9,2.4c-2.9,0.4-8.1,0.9-9.4,0.9c-1.3,0-1.8-0.5-2.2-1c-0.3-0.4-1.7-2.8-2.7-4.4l0,0l0,0l0,0l0,0
			l0,0l0,0l0,0l0,0l0,0l0,0l0,0l0,0l0,0l0,0l0,0l0,0l0,0l0,0l0,0l0,0l0,0l0,0l0,0l0,0l0,0l0,0l0,0l0,0l0,0l0,0l0,0l0,0l0,0l0,0l0,0
			l0,0l0,0l0,0l0,0l0,0l0,0l0,0l0,0l0,0l0,0l0,0l0,0l0,0l0,0l0,0l0,0l0,0l0,0l0,0l0,0l0,0l0,0l0,0l0,0l0,0l0,0l0,0l0,0l0,0l0,0l0,0
			l0,0l0,0l0,0l0,0l0,0l0,0l0,0l0,0l0,0l0,0l0,0c-0.8-0.9-1.2-1.5-1.8-1.7c-0.1,1-1.1,7.2-1.3,8.2c-0.2,1.1-1.5,13-2.1,15
			c-0.6,1.9,0.2,5.8,0.2,7.3c0.1,1.5-0.1,24.1,0.2,33.4c0.3,9.3,2.1,30.3,1.7,39.2c-0.5,8.9,0.6,17.8,0.8,22.3
			c0.2,4.5,0.2,11.4,0.2,13.4c0.1,2-0.2,5.5-2.9,6.4c-0.2,0.1-0.6,0.2-1.2,0.3c2.8-8.3,5.1-17.5,2-14.9c-4.8,4.1-7.4,4.9-5.3-0.1
			c2.1-5,2.7-16.2,3.2-26.3c0.5-10.1-4.1-14.3-5.3-22.4c-1.2-8.1,1.8-27.9,2.8-31.1c1-3.2,1.2-6.8-1.9-4.1
			c-10,8.7,1.4-20.6,3.8-26.5c2.4-5.9,2.9-14.9,3.6-20.6c0.1-0.5,0.1-0.9,0.2-1.4c-1.5-1.8-2.6-0.6-5.6-1.6
			c-3.8-1.4-4.4-5.1,0.2-3.7c4.6,1.4,6.9-1.2,4.3-3.5c-2.6-2.3-3.6-3.2-1-3c2.6,0.2,2.6-1.4,0.8-2.8c-1.8-1.4-2.2-2.4,0.1-4
			c2.3-1.6,2.3-2.8,0.2-4.9c-2-2.1-1.6-6.9,0.4-5.1c2,1.9,6.6,0.1,5.4-5.5c-1.2-5.6-0.5-4.5-3.5-7.5c-3-3-3.6-4.3,2-2.4
			c5.6,1.9,6.8,4.5,7,0.8c0.2-3.7,0.5-12.5,2.9-16.1c2.3-3.6,4.4-8.7,4.6-1.9C211.3,60.8,219.9,98,222.7,124.1L222.7,124.1z"/>
		<path class="st2" d="M84.6,16.6c1.2,4.6,6,15.4,19.4,19.3c13.4,3.9,26.9,2.7,34.9,1c8-1.6,19.6-9.3,23.3-19.6
			c-1.4,5.1-8.7,17.2-23.9,20.3c-15.2,3.1-30.4,1.1-39.1-2.9C90.6,30.8,85.2,21.8,84.6,16.6L84.6,16.6z M199.6,91.3
			c-2.6,0.7-3.8,0.8-5.6-0.8c1.5,0.4,3.6-1.4,4.1-2.5c0.4-1.1,1.3-3.5,1.6-4.2c0.3-0.7,0.1-3.1,0-4c-0.1-0.9-0.4-2.9,0.2-2.9
			c0.6,0,1.1,0.5,1.4,2.9c0.3,2.4,1,2.3,1.7,0.5c0.7-1.8,3.5-9.6,4.4-7.4C208.2,74.9,207.7,86.3,199.6,91.3L199.6,91.3z
			 M196.8,121.1c-0.2-0.3-0.4-0.5-0.5-0.7c-0.8-0.9-1.2-1.5-1.8-1.7c-0.1,1-1.1,7.2-1.3,8.2c-0.2,1.1-1.5,13-2.1,15
			c-0.6,1.9,0.2,5.8,0.2,7.3c0.1,1.5-0.1,24.1,0.2,33.4c0.3,9.3,2.1,30.3,1.7,39.2c-0.5,8.9,0.6,17.8,0.8,22.3
			c0.2,4.5,0.2,11.4,0.2,13.4c0.1,1.7-0.1,4.4-1.8,5.8c0.9-4.1,1.2-9.7,1.4-11.3c0.2-2.2,0.3-2.6-0.5-4.6s-1.7-0.2-5.6,2.9
			c5.3-7.7,3.7-18.8,4.1-23.8c0.4-5-0.8-5.9,0.1-14.5c0.9-8.6-0.5-3.4-2.1-2c1-3.4,0.5-8.6,1.1-15.6c0.5-7-0.6-11.7-1.2-6.9
			c-0.6,4.8-2.8,7.1-2.4,2.1c0.4-5,2-15.2,3-20.9c1-5.6,0.2-13.8,0.1-15.9c-0.1-2.1-2.1,3.9-5.9,7.2c4.2-4.7,5.6-12.2,5.8-15.4
			c0.2-3.2-1.5,1.7-4.4,5.7c5-10,5.9-19,6.6-21.4c0.6-2.4,1.5-11.9,1.5-13.4c0-1.4-5.1-1.1-4.4-2.1c0.7-1.1,4.2-0.6,4.4-2.5
			c0.3-3.9-2.5-3.7-1.8-5c0.6-1.2,2.2-1.5,2.3-3c0.1-1.5-0.9-2.5-1.7-2.6c-0.8-0.1,0.4-0.6,2.8-0.5
			C196,105.5,196.4,112.8,196.8,121.1L196.8,121.1z M52.6,244.6c0.1-1.7-0.2-7.8,0.1-11.4c0.3-3.6,0.1-9.4,0.2-14.2
			c0.2-4.9,1.3-21.2,1.5-25.8c0.2-4.6,0.6-14.1,0.8-21.2c0.2-7.1-0.8-23.3-0.3-29.7c0.5-6.4,0.3-10.9,0-13.9
			c-0.1-0.7-0.2-1.4-0.3-2.1c1.8-0.6,3.6-1.5,4.8-3.2c-0.3,1.4-2.8,3.3-3.6,4.7c-0.8,1.4,0.1,4.2-0.3,5.9
			c-0.4,1.7,0.4,12.6,0.3,17.5c-0.1,4.9,1.6,9.1,4.7,11.9c-3-0.8-5.1-4.7-4.7-1.6c0.5,3.1-0.1,12.5-0.1,18.1c0,5.6,1.2,7.1,1.1,15.4
			c-0.2,8.3,0.1,14.8,3.8,22c-4.7-3.2-5-8.5-5.5-11.1c-0.5-2.6-1.5,5.2-0.1,9.7c1.4,4.6-0.6,3.3-0.8,4.2c-0.3,0.9-0.9,4.6,1.6,9.8
			c2.6,5.2,3.1,10.9,3.2,13.4c-1.6-3.6-4-10-4.7-7.5c-0.6,2.2-1.9,17.6-1.8,24.5c-0.8-0.9-0.7-1.7-0.7-2.7
			C52,255.7,52.6,244.6,52.6,244.6L52.6,244.6z M37,76.6c0.2-2.8,0.8-7.1,1.8-9.2c0.3,1.8-2,7.4,0.3,5.3c-0.2,1.5,0,10.3,0.5,12.6
			c0.5,2.3,1.6,1.8,2.1,0.7c0.6-1.1,1.1-1.8,1.6-1.5c0.5,0.3-1.2,1.9-0.7,5.8c0.5,3.9,2,6.4,1.4,3.2c-0.6-3.2-0.6-5.3-0.2-4.9
			c1.2,1,0.2,2.2,2.4,5.6c2.2,3.4,1.8,3.7,2.3,5.2c0.5,1.5-4.1,5.2-7.7,1C37.4,96.1,36.8,86.9,37,76.6L37,76.6z M56.2,253.1
			c18.2,6.3,46.4,9,77.5,8c31.2-1,42.9-2.9,57.1-6.4c-9.6,4.4-38.7,7-57,7.4C115.4,262.5,81.3,262.4,56.2,253.1L56.2,253.1z"/>
		<path class="st2" d="M52.8,120c-0.8,1-2.1,1.6-2.6,1.8c-0.5,0.2-3.1,2.4-7.1,3.2c-4,0.8-11.9,0.5-13.6,0.4
			c-1.7-0.1-7.1-0.2-11.1-1.5s-6.3-2.8-6.3-3.3c0-0.5,0.2-6.6,0.4-7.9c0.3-1.3,1.4-4.6,1.8-6.7c0.5-2.1,2.4-10.3,2.6-12.3
			c0.2-2.1,0.7-9.2,0.6-12.4c-0.1-3.2,0.8-9.6,1-11.2c0.2-1.6,1.9-9.4,2.7-13s2.4-11.1,4.5-14.6c1.3-2.3,2.9-4.4,5.3-6.5
			c3.1,9.9,4.6,24.1,6.2,33.9c0.7,4.1,3.3,14.1,4.2,16c0.9,1.9,1.9,5.4,4.2,6.8c2.3,1.4,2.7,1.8,2.6,2.5c-0.2,0.7,0,2,0.8,2.5
			c0.8,0.5,1.5,2.6,1.9,4.2c0.4,1.6-0.5,3.9,0.4,5.4c0.8,1.5,0.6,3,0.5,4.9C51.5,114.1,51.7,117.7,52.8,120L52.8,120z"/>
		<path class="st2" d="M214.3,36c1.4,1.7,2.7,4.5,3.1,5.4c0.5,1.2,5,9.1,7.7,15.4c2.7,6.2,3.6,17.7,3.8,20.5
			c0.2,2.8,0.2,5.4,1.5,8.9c1.4,3.6,4.1,14.7,5.1,18.8c1.1,4.1,2.7,12.1,3.1,13.3c0.4,1.2,0.1,2.2-1.8,2.6
			c-1.9,0.4-22.2,5.2-25.1,5.6c-2.9,0.4-8.1,0.9-9.4,0.9c-1.3,0-1.8-0.5-2.2-1c-0.4-0.5-3-5-3.7-5.9c-0.8-0.9-1.2-1.5-1.8-1.7
			c0.3-2.2,0.2-5.9,0.1-7.1c-0.1-1.3-0.7-4.4-0.1-5.4c0.6-1,1.3-2.3,0.5-3.6c-0.8-1.3-0.9-2.1-0.4-3.1c0.5-1,2.3-2.1,1.8-3.7
			c-0.5-1.6-0.8-2.7-0.3-3.2c0.5-0.5,2.1-3.5,2.6-5.1c0.5-1.6,0.9-2.3,1.7-2.8c0.8-0.5,4.1-3.6,4.2-4.9c0.1-1.3,1.5-14.5,2.7-19.2
			C208.4,56.7,210.5,42.4,214.3,36L214.3,36z"/>
		<path class="st2" d="M204.8,127.2c-1.1,0.1-2.1,0.2-2.5,0.2c-1.3,0-1.8-0.5-2.2-1c-0.4-0.5-3-5-3.7-5.9c-0.8-0.9-1.2-1.5-1.8-1.7
			c0.3-2.2,0.2-5.9,0.1-7.1c-0.1-1.3-0.7-4.4-0.1-5.4c0.6-1,1.3-2.3,0.5-3.6c-0.8-1.3-0.9-2.1-0.4-3.1c0.5-1,2.3-2.1,1.8-3.7
			c-0.5-1.6-0.8-2.7-0.3-3.2c0.5-0.5,2.1-3.5,2.6-5.1c0.5-1.6,0.9-2.3,1.7-2.8c0.8-0.5,4.1-3.6,4.2-4.9c0.1-1.3,1.5-14.5,2.7-19.2
			c0.6-2.5,1.7-9,3.3-15.1c2.9,1.8,3.5,11.3,4.8,21.4c1.4,10.1-5.2,24.1-7.6,29.5c-2.4,5.4-7.7,12.5-8,15.3
			C199.7,114.5,202.7,120.6,204.8,127.2L204.8,127.2z M223,52.2c0.7,1.5,1.5,3,2.1,4.5c2.7,6.2,3.6,17.7,3.8,20.5
			c0.2,2.8,0.2,5.4,1.5,8.9c1.4,3.6,4.1,14.7,5.1,18.8c1.1,4.1,2.7,12.1,3.1,13.3c0.4,1.2,0.1,2.2-1.8,2.6c-0.3,0.1-1.1,0.2-2.2,0.5
			c-2.7-5.4-3.5-18.3-3.6-19.4c-0.2-1.5,1.1-14.6-6.5-4.4c-7.6,10.2-4.1-2.9-2.1-8.4c2-5.6,3.4-21.6,2.4-28.9
			C224.4,57.7,223.7,54.9,223,52.2L223,52.2z M52.8,120c-0.8,1-2.1,1.6-2.6,1.8c-0.5,0.2-3.1,2.4-7.1,3.2c-1.1,0.2-2.5,0.4-3.9,0.4
			c-0.1-3.5-0.2-8.2,1.8-9.7c2.6-1.9,7.1-4,5-4s-2.9-0.3-0.9-1.4c2-1.1-0.8-1.9-3.8-3.9c-3.1-1.9-10-6.6-7-8.9
			c3-2.3,0.9-5.9-0.5-7.9c-1.4-2-0.4-3.9-2.5-5.9c-2.1-2-4.4-10.1-4.8-14.6c-0.5-4.6,1.1-6.8,1.5-9.9c0.5-3.1-1.6-12.6,0.4-9.4
			c2,3.1,4.1,4.9,5,9.2c0.4,1.9,1.7,5.7,3.4,9.5c0.1,0.4,0.1,0.8,0.2,1.2c0.7,4.1,3.3,14.2,4.2,16c0.9,1.9,1.9,5.4,4.2,6.8
			c2.3,1.4,2.7,1.8,2.6,2.5c-0.2,0.7,0,2,0.8,2.5c0.8,0.5,1.5,2.6,1.9,4.2c0.4,1.6-0.5,3.9,0.4,5.4c0.8,1.5,0.6,3,0.5,4.9
			C51.5,114.1,51.7,117.7,52.8,120L52.8,120z M15.7,122.8c-2.2-1-3.5-1.9-3.5-2.3c0-0.5,0.2-6.6,0.4-7.9c0.3-1.3,1.4-4.6,1.8-6.7
			c0.5-2.1,2.4-10.3,2.6-12.3c0.2-2.1,0.7-9.2,0.6-12.4c-0.1-3.2,0.8-9.6,1-11.2c0.1-1,0.8-4.3,1.5-7.6c-0.6,9-1.4,19.9,0.1,24.3
			c2.4,7,0.5,18.3-1.7,21.6C17,110.7,16,117.8,15.7,122.8L15.7,122.8z"/>
		<path class="st2" d="M85.1,13.2c0.6-0.6,1.8-1.9,3.3-2.1c1.3,0.4,18.4,3.4,32.3,3.6c13.9,0.1,28.1-0.6,36.8-2.6
			c0.8,0.3,3.1,1.8,3.6,2.6c-1.4,4.3-9.4,21.4-38.3,21.4C93.9,36.1,88.2,22.2,85.1,13.2L85.1,13.2z"/>
		<path class="st2" d="M88.4,11.1c1.3,0.4,18.4,3.4,32.3,3.6c13.9,0.1,28.1-0.6,36.8-2.6c-1.1,4.9-8.4,19.8-34.7,19.8
			C96.7,31.8,91.4,19.9,88.4,11.1L88.4,11.1z"/>
		<path class="st2" d="M103.1,13.4c-1.2,3.9-0.4,11.9,11.3,17.9c-19-2.3-23.4-12.5-26-20.2C93,12.6,98.4,12.8,103.1,13.4L103.1,13.4
			z"/>
		<path class="st2" d="M85.1,13.2c0.6-0.6,1.8-1.9,3.3-2.1c1.3,0.4,18.4,3.4,32.3,3.6c13.9,0.1,28.1-0.6,36.8-2.6
			c0.8,0.3,3.1,1.8,3.6,2.6c-9.6,4.5-31.9,4.1-37.4,4C118.2,18.6,101,19,85.1,13.2L85.1,13.2z"/>
		<path class="st2" d="M228,68.6c0.5,3.9,0.8,7.3,0.9,8.6c0.2,2.8,0.2,5.4,1.5,8.9c1.4,3.6,4.1,14.7,5.1,18.8
			c1.1,4.1,2.7,12.1,3.1,13.3c0.3,0.9,0.2,1.6-0.5,2.1c-0.9-8-4.9-20.4-5.5-24c-0.7-4.1-2.6-5.4-3.4-9.6c-0.8-4.2-1.4,0.6-5.2,6
			C227.2,85.3,228.1,76.1,228,68.6L228,68.6z M51.2,121.4L51.2,121.4L51.2,121.4L51.2,121.4L51.2,121.4L51.2,121.4L51.2,121.4
			L51.2,121.4l-0.1,0.1l0,0l0,0l0,0l0,0l0,0l0,0l0,0l0,0l0,0l0,0l0,0l0,0l0,0l0,0l0,0h0l0,0l0,0l0,0l0,0l0,0l0,0h0l0,0l0,0l0,0l0,0
			l0,0l0,0l0,0l0,0l0,0l0,0l0,0l0,0l0,0l0,0l0,0l0,0l0,0l0,0l0,0l0,0l0,0l0,0l0,0l0,0l0,0l0,0l0,0l0,0l0,0l0,0l0,0l0,0l0,0l0,0l0,0
			l0,0l0,0l0,0l0,0l0,0l0,0l0,0l0,0l0,0h0l0,0l0,0l0,0l0,0l0,0l0,0h0l0,0l0,0l0,0l0,0l0,0l0,0l0,0l0,0l0,0l0,0l0,0l0,0l0,0l0,0l0,0
			l0,0l0,0l0,0l0,0l0,0l0,0l0,0l0,0l0,0l0,0l0,0l0,0l0,0l0,0l0,0l0,0l0,0l0,0l0,0l0,0l0,0l0,0l0,0l0,0l0,0l0,0l0,0l0,0h0l0,0l0,0
			l0,0l0,0l0,0l0,0l0,0l0,0l0,0l0,0l0,0l0,0l0,0l0,0l0,0l0,0l0,0l0,0l0,0l0,0l0,0l0,0l0,0l0,0l0,0l0,0l0,0l0,0l0,0l0,0
			c-1.5-2.6-2.2-5.6-1.5-7.4c0.9-2.2,3.5-6.1,1.8-5.4c-1.7,0.7-2,1-4.8,1.9c1.8-1.1,3.9-2.5,4.5-3.1c0.6-0.6,0.3-1.7-0.1-2.3
			c-0.4-0.6-1.2-2.6-4.5-2.6c1.7-0.4,3.5,0,4.3,0.4c0.5,0.3,0.5-1-0.8-1.5c-1.3-0.5-6-2.4-8.2-4.3c-2.3-2-4.8-7.1-5.2-8.4
			c1,1.3,3.3,5.6,5.6,7.7c2.3,2.1,5.9,2.9,4.8,1.8c-1.1-1.1-2.4-6.4-3.7-7.5c-1.3-1.1-3.4-2.1-5.8-5.9c-0.3-0.5-0.6-2.2,0.7-0.4
			c1.5,2.1,5.1,6.1,3.1,2.9c-2-3.2-4.9-9-4.2-9.2c0.3-0.1,3.6,6.8,4.2,7.7c0.7,1.1-0.2-2.7-0.9-4.1c-0.2-0.4-0.5-1.7-0.8-3.2
			c-0.4-1.2-0.7-2.5-0.9-3.2c-0.3-1.1-1.4-7.2-1.8-10.4c-0.5-3.2-2.3-15.6-3.3-20.9c-0.6-3.3-1.4-6.1-2.1-8.4
			c0.1-0.1,0.2-0.2,0.4-0.3c3.1,9.9,4.6,24.1,6.2,33.9c0.7,4.1,3.3,14.2,4.2,16c0.9,1.9,1.9,5.4,4.2,6.8c2.3,1.4,2.7,1.8,2.6,2.5
			c-0.2,0.7,0,2,0.8,2.5c0.8,0.5,1.5,2.6,1.9,4.2c0.4,1.6-0.5,3.9,0.4,5.4c0.8,1.5,0.6,3,0.5,4.9c-0.1,2,0.1,5.6,1.2,7.9
			C52.4,120.6,51.7,121.1,51.2,121.4L51.2,121.4z M203,127.3c-0.3,0,0,0-0.8,0c-0.7,0-1.8-0.5-2.2-1c-0.4-0.5-3-5-3.7-5.9
			c-0.8-0.9-1.2-1.5-1.8-1.7c0.3-2.2,0.2-5.8,0.1-7.1c-0.1-1.3-0.7-4.4-0.1-5.4c0.6-1,1.3-2.3,0.5-3.6c-0.8-1.3-0.9-2.1-0.4-3.1
			c0.5-1,2.3-2.1,1.8-3.7c-0.5-1.6-0.8-2.7-0.3-3.2c0.5-0.5,2.1-3.5,2.6-5.1c0.5-1.6,0.9-2.3,1.7-2.8c0.8-0.5,4.1-3.6,4.2-4.9
			c0.5-5.7,1.2-13.2,2.7-19.2c1-3.9,3.1-18.2,6.9-24.6c0.2,0.2,0.3,0.4,0.5,0.6c-2.4,3.6-5,13.6-5.5,17.7
			c-0.5,4.1-1.7,10.5-2.6,16.1c-0.1,1.4-0.2,2.6-0.3,3.9c-0.8,7.7-1.6,7.7-3.2,9.6c-1.7,1.9-3.5,6.6-1.9,5.2
			c4.9-4.1,2.4-4.1,5.3-8.5c1-1.6,1.7-1.6,1.4,0.6c-0.3,2.2-2,5.1-2.3,6.6c-0.3,1.5,3.8-3.2,4.4-2.6c0.4,0.5-2.1,4.2-4.1,5.8
			c-1.8,1.5-5.9,5.5-7,6.3c-1.1,0.8-3.5,3.2-0.3,2.9c3.2-0.4,3.7-2.3,4.7-2.1c1,0.2-1.6,2.1-3.1,3.4c-1.5,1.3-2.3,2-3.3,4.1
			c1.3-0.8,4.4-2.6,4.4-1.6c0,2.3-3.3,1.6-3.5,7.2C197.4,117,200.9,122.8,203,127.3L203,127.3z M15.1,103c0.7-3.3,1.7-7.8,1.9-9.3
			c0.1-1.3,0.4-4.8,0.5-8c0.3,1.4,0.7,2.6,0.9,3.4c0.8,2.6,2.5,11.3,0.5,7.9c-1.9-3.4-1.4,1.1-1.6,3.4C17.2,102,16.2,104,15.1,103
			L15.1,103z"/>
		<path class="st2" d="M238,115.8c0.3,1.2,0.5,2.2,0.6,2.5c0.4,1.2,0.1,2.2-1.8,2.6c-1.9,0.4-22.2,5.2-25.1,5.6
			c-2.9,0.4-8.1,0.9-9.4,0.9c-1.3,0-1.8-0.5-2.2-1c-0.2-0.2-0.8-1.3-1.5-2.4C207.5,122.7,226.8,119.7,238,115.8L238,115.8z
			 M52.8,120c-0.8,1-2.1,1.6-2.6,1.8c-0.5,0.2-3.1,2.4-7.1,3.2c-4,0.8-11.9,0.5-13.6,0.4c-1.7-0.1-7.1-0.2-11.1-1.5
			s-6.3-2.8-6.3-3.3c0-0.3,0-1.8,0.1-3.5c5.2,2.2,7.5,4,19,4.6c12.2,0.6,17.4-2,20.7-4.2C52.2,118.4,52.5,119.3,52.8,120L52.8,120z"
			/>
	</g>
</g>
</svg>
