<?xml version="1.0" encoding="utf-8"?>
<!-- Generator: Adobe Illustrator 19.2.0, SVG Export Plug-In . SVG Version: 6.00 Build 0)  -->
<svg version="1.1" xmlns="http://www.w3.org/2000/svg" xmlns:xlink="http://www.w3.org/1999/xlink" x="0px" y="0px"
	 viewBox="0 0 1500 1000" style="enable-background:new 0 0 1500 1000;" xml:space="preserve">
<metadata><?xpacket begin="﻿" id="W5M0MpCehiHzreSzNTczkc9d"?>
<x:xmpmeta xmlns:x="adobe:ns:meta/" x:xmptk="Adobe XMP Core 5.6-c111 79.158366, 2015/09/25-01:12:00        ">
   <rdf:RDF xmlns:rdf="http://www.w3.org/1999/02/22-rdf-syntax-ns#">
      <rdf:Description rdf:about=""/>
   </rdf:RDF>
</x:xmpmeta>
                                                                                                    
                                                                                                    
                                                                                                    
                                                                                                    
                                                                                                    
                                                                                                    
                                                                                                    
                                                                                                    
                                                                                                    
                                                                                                    
                                                                                                    
                                                                                                    
                                                                                                    
                                                                                                    
                                                                                                    
                                                                                                    
                                                                                                    
                                                                                                    
                                                                                                    
                                                                                                    
                           
<?xpacket end="w"?></metadata>
<style type="text/css">
	.st0{fill:#659900;}
	.st1{fill:url(#SVGID_1_);}
	.st2{fill:#FFFFFF;}
</style>
<g id="Background">
	<polygon class="st0" points="1500,1000 0,1000 0,0 1500,0 	"/>
</g>
<g id="Radial">
	<radialGradient id="SVGID_1_" cx="750" cy="500" r="637.3774" gradientUnits="userSpaceOnUse">
		<stop  offset="0" style="stop-color:#FFFFFF"/>
		<stop  offset="0.2907" style="stop-color:#FBFBFB"/>
		<stop  offset="0.5918" style="stop-color:#EEEFEF"/>
		<stop  offset="0.8967" style="stop-color:#DADBDC"/>
		<stop  offset="1" style="stop-color:#D1D3D4"/>
	</radialGradient>
	<rect class="st1" width="1500" height="1000"/>
</g>
<g id="Line">
	<g>
		<g>
			<path class="st2" d="M1442.5,947.5H57.5v-895h1385V947.5z M62.5,942.5h1375v-885H62.5V942.5z"/>
			<g>
				<path class="st2" d="M60,72.5h-2.5v-5H60c6.9,0,12.5-5.6,12.5-12.5v-2.5h5V55C77.5,64.7,69.7,72.5,60,72.5z"/>
				<path class="st2" d="M77.5,947.5h-5V945c0-6.9-5.6-12.5-12.5-12.5h-2.5v-5H60c9.7,0,17.5,7.9,17.5,17.5V947.5z"/>
				<path class="st2" d="M1442.5,72.5h-2.5c-9.7,0-17.5-7.9-17.5-17.5v-2.5h5V55c0,6.9,5.6,12.5,12.5,12.5h2.5V72.5z"/>
				<path class="st2" d="M1427.5,947.5h-5V945c0-9.7,7.9-17.5,17.5-17.5h2.5v5h-2.5c-6.9,0-12.5,5.6-12.5,12.5V947.5z"/>
			</g>
		</g>
		<g>
			<g>
				<path class="st2" d="M302.5,790h-245V210h245V790z M62.5,785h235V215h-235V785z"/>
				<path class="st2" d="M297.5,604.5V395.5l4.1,3.5C331.1,424.4,348,461.2,348,500c0,38.8-16.9,75.6-46.4,100.9L297.5,604.5z
					 M302.5,406.6v186.8c25.8-24.2,40.5-57.9,40.5-93.4C343,464.5,328.3,430.8,302.5,406.6z"/>
				<path class="st2" d="M154.1,623.5H57.5v-247h96.6V623.5z M62.5,618.5h86.6v-237H62.5V618.5z"/>
				<path class="st2" d="M62.5,550.5H21.4v-101h41.1V550.5z M26.4,545.5h31.1v-91H26.4V545.5z"/>
				<circle class="st2" cx="215.8" cy="500" r="5"/>
			</g>
			<g>
				<path class="st2" d="M1442.5,790h-245V210h245V790z M1202.5,785h235V215h-235V785z"/>
				<path class="st2" d="M1202.5,604.5l-4.1-3.5c-29.5-25.3-46.4-62.1-46.4-100.9c0-38.8,16.9-75.6,46.4-100.9l4.1-3.5V604.5z
					 M1197.5,406.6c-25.8,24.2-40.5,57.9-40.5,93.4c0,35.5,14.7,69.2,40.5,93.4V406.6z"/>
				<path class="st2" d="M1442.5,623.5h-96.6v-247h96.6V623.5z M1350.9,618.5h86.6v-237h-86.6V618.5z"/>
				<path class="st2" d="M1478.6,550.5h-41.1v-101h41.1V550.5z M1442.5,545.5h31.1v-91h-31.1V545.5z"/>
				<circle class="st2" cx="1284.2" cy="500" r="5"/>
			</g>
		</g>
		<g>
			<rect x="747.5" y="52.5" class="st2" width="5" height="895"/>
			<path class="st2" d="M750,633c-73.3,0-133-59.7-133-133c0-73.3,59.7-133,133-133c73.3,0,133,59.7,133,133
				C883,573.3,823.3,633,750,633z M750,372c-70.6,0-128,57.4-128,128c0,70.6,57.4,128,128,128c70.6,0,128-57.4,128-128
				C878,429.4,820.6,372,750,372z"/>
			<circle class="st2" cx="750" cy="500" r="5"/>
		</g>
	</g>
</g>
</svg>
